Coordinates
version=1
nRows=7
nColumns=40
inDegrees=yes

Units are S.I. units (second, meters, Newtons, ...)
Angles are in degrees.

endheader
time	pelvis_tilt	pelvis_list	pelvis_rotation	pelvis_tx	pelvis_ty	pelvis_tz	hip_flexion_r	hip_adduction_r	hip_rotation_r	knee_angle_r	knee_angle_r_beta	ankle_angle_r	subtalar_angle_r	mtp_angle_r	hip_flexion_l	hip_adduction_l	hip_rotation_l	knee_angle_l	knee_angle_l_beta	ankle_angle_l	subtalar_angle_l	mtp_angle_l	lumbar_extension	lumbar_bending	lumbar_rotation	arm_flex_r	arm_add_r	arm_rot_r	elbow_flex_r	pro_sup_r	wrist_flex_r	wrist_dev_r	arm_flex_l	arm_add_l	arm_rot_l	elbow_flex_l	pro_sup_l	wrist_flex_l	wrist_dev_l
     32.77000000	     -5.40608135	     -3.41981766	      0.46654582	      0.92941101	      0.92745940	      0.43201727	     27.14201340	     -8.81499347	     -8.25490776	     67.62915339	     67.62915339	     -2.00161979	    -18.61072003	      6.84654064	     15.44670051	     -3.04602734	     -3.37507811	     23.46794311	     23.46794311	     15.43198418	    -11.18402880	      2.47713549	     -9.31328141	      6.14657743	      1.38848412	      8.13535823	    -11.92401247	     -6.80417779	     45.08854550	     45.40847706	      0.00000000	      0.00000000	      0.43153593	    -12.77500942	     -7.82278320	     56.74698960	     45.90395184	      0.00000000	      0.00000000
     32.78364286	     -5.52298516	     -3.55438534	      0.01335979	      0.92769541	      0.92813836	      0.43228642	     28.74167843	     -8.64709120	     -8.34836677	     66.88155855	     66.88155855	     -1.28333397	    -18.75068392	      6.91467793	     14.81184215	     -3.18332606	     -3.46506734	     22.88008570	     22.88008570	     15.51345551	    -11.55856621	      2.75277178	     -9.49941070	      6.33020506	      1.90846504	      6.06617011	    -12.31038386	     -6.73757305	     42.85820869	     45.48245995	      0.00000000	      0.00000000	      1.75387209	    -13.01140431	     -8.18720934	     58.27719366	     45.98109462	      0.00000000	      0.00000000
     32.79728571	     -5.60997584	     -3.71495299	     -0.43649815	      0.92603391	      0.92882980	      0.43270223	     30.21884071	     -8.33851527	     -8.41476069	     65.91915718	     65.91915718	     -0.29725910	    -18.80000210	      8.06671949	     14.14602438	     -3.39793082	     -3.71149027	     22.30057060	     22.30057060	     15.63250635	    -11.59947855	      2.85025304	     -9.67629594	      6.48572260	      1.43211844	      5.94135879	    -11.96551382	     -7.16307420	     37.08448307	     45.74594648	      0.00000000	      0.00000000	      1.90562563	    -13.75393715	     -8.60708552	     61.19829512	     46.14336238	      0.00000000	      0.00000000
     32.81092857	     -5.68863477	     -3.89754423	     -0.92509690	      0.92448232	      0.92947171	      0.43322505	     31.50861846	     -7.94006332	     -8.48396308	     64.57036067	     64.57036067	      0.30891557	    -18.84595789	      8.15925874	     13.42925408	     -3.65219207	     -4.07149043	     21.67281419	     21.67281419	     15.78562254	    -11.52272185	      2.94193510	     -9.91931396	      6.72650040	      1.91699118	      3.98645566	    -12.29983048	     -7.17081015	     35.24510797	     45.80949224	      0.00000000	      0.00000000	      3.15298305	    -13.96362471	     -9.17185667	     62.67700679	     46.23159550	      0.00000000	      0.00000000
     32.82457143	     -5.75880543	     -4.06515194	     -1.40456749	      0.92294723	      0.92994573	      0.43399816	     32.69674774	     -7.42539442	     -8.46619355	     62.96450910	     62.96450910	      1.05659113	    -18.81827176	      8.75810154	     12.78358876	     -3.92370300	     -4.49008221	     21.18701449	     21.18701449	     15.92409845	    -11.38161662	      2.78291191	    -10.12975265	      6.86236890	      1.43363530	      4.05097835	    -12.03712454	     -7.86873240	     29.81778344	     46.09587811	      0.00000000	      0.00000000	      3.28701739	    -14.60251602	    -10.14000102	     65.53894810	     46.43957696	      0.00000000	      0.00000000
     32.83821429	     -5.80387589	     -4.22441649	     -1.89367314	      0.92155150	      0.93041251	      0.43484378	     33.66172271	     -6.85719787	     -8.43829774	     60.89705407	     60.89705407	      1.54404956	    -18.74374167	      8.68430229	     12.06496711	     -4.15977256	     -4.86814789	     20.63110389	     20.63110389	     16.06409602	    -11.35171927	      2.85268145	    -10.38629799	      7.05383318	      1.83104617	      2.32177964	    -12.28702789	     -7.98606475	     28.30176448	     46.15907325	      0.00000000	      0.00000000	      4.46131346	    -14.82627202	    -10.72587803	     67.00910598	     46.52935247	      0.00000000	      0.00000000
     32.85185714	     -5.94977615	     -4.40301907	     -2.34175770	      0.92018801	      0.93060860	      0.43588950	     34.56280541	     -6.20961538	     -8.43043621	     58.42991345	     58.42991345	      1.97158636	    -18.53525360	      8.57154023	     11.49962373	     -4.42589546	     -5.19112135	     20.14378143	     20.14378143	     16.23548858	    -11.29845324	      2.86064694	    -10.46971898	      7.26248619	      1.82544198	      0.80377800	    -12.43597693	     -8.07480141	     27.10611246	     46.20781108	      0.00000000	      0.00000000	      5.36110164	    -15.31744245	    -11.16497274	     68.21329140	     46.59436171	      0.00000000	      0.00000000
